<?xml version="1.0" encoding="UTF-8" standalone="no"?>
<!-- Created with Inkscape (http://www.inkscape.org/) -->

<svg
   xmlns:dc="http://purl.org/dc/elements/1.1/"
   xmlns:cc="http://creativecommons.org/ns#"
   xmlns:rdf="http://www.w3.org/1999/02/22-rdf-syntax-ns#"
   xmlns:svg="http://www.w3.org/2000/svg"
   xmlns="http://www.w3.org/2000/svg"
   xmlns:sodipodi="http://sodipodi.sourceforge.net/DTD/sodipodi-0.dtd"
   xmlns:inkscape="http://www.inkscape.org/namespaces/inkscape"
   id="svg3039"
   version="1.1"
   inkscape:version="0.48.2 r9819"
   width="765"
   height="990"
   xml:space="preserve"
   sodipodi:docname="q6.ps"><metadata
     id="metadata3045"><rdf:RDF><cc:Work
         rdf:about=""><dc:format>image/svg+xml</dc:format><dc:type
           rdf:resource="http://purl.org/dc/dcmitype/StillImage" /><dc:title></dc:title></cc:Work></rdf:RDF></metadata><defs
     id="defs3043"><clipPath
       clipPathUnits="userSpaceOnUse"
       id="clipPath3055"><path
         d="m 360,360 3320,0 0,4840 -3320,0 0,-4840 z"
         id="path3057" /></clipPath></defs><sodipodi:namedview
     pagecolor="#ffffff"
     bordercolor="#666666"
     borderopacity="1"
     objecttolerance="10"
     gridtolerance="10"
     guidetolerance="10"
     inkscape:pageopacity="0"
     inkscape:pageshadow="2"
     inkscape:window-width="1014"
     inkscape:window-height="826"
     id="namedview3041"
     showgrid="false"
     inkscape:zoom="0.83281465"
     inkscape:cx="382.5"
     inkscape:cy="374.92526"
     inkscape:window-x="0"
     inkscape:window-y="0"
     inkscape:window-maximized="0"
     inkscape:current-layer="g3053" /><g
     id="g3047"
     inkscape:groupmode="layer"
     inkscape:label="ink_ext_XXXXXX"
     transform="matrix(1.25,0,0,-1.25,0,990)"><g
       id="g3049"
       transform="scale(0.1,0.1)"><g
         id="g3051"><g
           id="g3053"
           clip-path="url(#clipPath3055)"><path
             d="m 2190,4110 c 0,99.41 -120.89,180 -270,180 -149.11,0 -270,-80.59 -270,-180 0,-99.41 120.89,-180 270,-180 149.11,0 270,80.59 270,180"
             style="fill:none;stroke:#000000;stroke-opacity:1;stroke-width:10;stroke-linecap:butt;stroke-linejoin:miter;stroke-miterlimit:1;stroke-dasharray:none"
             id="path3059" /><g
             id="g3061"
             transform="scale(10,10)"><text
               transform="matrix(1,0,0,-1,188,406.4)"
               id="text3063"><tspan
                 style="fill:#000000;fill-opacity:1;fill-rule:nonzero;stroke:none;font-family:Times;font-variant:normal;font-weight:normal;font-size:14;writing-mode:lr;-inkscape-font-specification:Times-Roman"
                 x="0"
                 y="0"
                 id="tspan3065">0</tspan></text>
</g><path
             d="m 2280,3230 c 0,99.41 -120.89,180 -270,180 -149.11,0 -270,-80.59 -270,-180 0,-99.41 120.89,-180 270,-180 149.11,0 270,80.59 270,180"
             style="fill:none;stroke:#000000;stroke-opacity:1;stroke-width:10;stroke-linecap:butt;stroke-linejoin:miter;stroke-miterlimit:1;stroke-dasharray:none"
             id="path3067" /><g
             id="g3069"
             transform="scale(10,10)"><text
               transform="matrix(1,0,0,-1,197,318.4)"
               id="text3071"><tspan
                 style="fill:#000000;fill-opacity:1;fill-rule:nonzero;stroke:none;font-family:Times;font-variant:normal;font-weight:normal;font-size:14;writing-mode:lr;-inkscape-font-specification:Times-Roman"
                 x="0"
                 y="0"
                 id="tspan3073">1</tspan></text>
</g><path
             d="m 1938.6,3927.7 c 15.5,-151.1 37.3,-364.6 52.8,-515.6"
             style="fill:none;stroke:#000000;stroke-opacity:1;stroke-width:10;stroke-linecap:butt;stroke-linejoin:miter;stroke-miterlimit:1;stroke-dasharray:none"
             id="path3075" /><g
             id="g3077"
             transform="scale(10,10)"><text
               transform="matrix(1,0,0,-1,197,362.4)"
               id="text3079"><tspan
                 style="fill:#000000;fill-opacity:1;fill-rule:nonzero;stroke:none;font-family:Times;font-variant:normal;font-weight:normal;font-size:14;writing-mode:lr;-inkscape-font-specification:Times-Roman"
                 x="0"
                 y="0"
                 id="tspan3081">0</tspan></text>
</g><path
             d="m 940,3230 c 0,99.41 -120.887,180 -270,180 -149.113,0 -270,-80.59 -270,-180 0,-99.41 120.887,-180 270,-180 149.113,0 270,80.59 270,180"
             style="fill:none;stroke:#000000;stroke-opacity:1;stroke-width:10;stroke-linecap:butt;stroke-linejoin:miter;stroke-miterlimit:1;stroke-dasharray:none"
             id="path3083" /><g
             id="g3085"
             transform="scale(10,10)"><text
               transform="matrix(1,0,0,-1,63,318.4)"
               id="text3087"><tspan
                 style="fill:#000000;fill-opacity:1;fill-rule:nonzero;stroke:none;font-family:Times;font-variant:normal;font-weight:normal;font-size:14;writing-mode:lr;-inkscape-font-specification:Times-Roman"
                 x="0"
                 y="0"
                 id="tspan3089">2</tspan></text>
</g><path
             d="m 2820,2350 c 0,99.41 -120.89,180 -270,180 -149.11,0 -270,-80.59 -270,-180 0,-99.41 120.89,-180 270,-180 149.11,0 270,80.59 270,180"
             style="fill:none;stroke:#000000;stroke-opacity:1;stroke-width:10;stroke-linecap:butt;stroke-linejoin:miter;stroke-miterlimit:1;stroke-dasharray:none"
             id="path3099" /><g
             id="g3101"
             transform="scale(10,10)"><text
               transform="matrix(1,0,0,-1,250.5,230.4)"
               id="text3103"><tspan
                 style="fill:#000000;fill-opacity:1;fill-rule:nonzero;stroke:none;font-family:Times;font-variant:normal;font-weight:normal;font-size:14;writing-mode:lr;-inkscape-font-specification:Times-Roman"
                 x="0"
                 y="0"
                 id="tspan3105">7</tspan></text>
</g><path
             d="m 2114.1,3060.3 c 95.6,-155.8 236.6,-385.5 332.1,-541.1"
             style="fill:none;stroke:#000000;stroke-opacity:1;stroke-width:10;stroke-linecap:butt;stroke-linejoin:miter;stroke-miterlimit:1;stroke-dasharray:none"
             id="path3107" /><g
             id="g3109"
             transform="scale(10,10)"><text
               transform="matrix(1,0,0,-1,232,274.4)"
               id="text3111"><tspan
                 style="fill:#000000;fill-opacity:1;fill-rule:nonzero;stroke:none;font-family:Times;font-variant:normal;font-weight:normal;font-size:14;writing-mode:lr;-inkscape-font-specification:Times-Roman"
                 x="0"
                 y="0"
                 id="tspan3113">2</tspan></text>
</g><path
             d="m 1820,590 c 0,99.41 -120.89,180 -270,180 -149.11,0 -270,-80.59 -270,-180 0,-99.41 120.89,-180 270,-180 149.11,0 270,80.59 270,180"
             style="fill:none;stroke:#000000;stroke-opacity:1;stroke-width:10;stroke-linecap:butt;stroke-linejoin:miter;stroke-miterlimit:1;stroke-dasharray:none"
             id="path3115" /><g
             id="g3117"
             transform="scale(10,10)"><text
               transform="matrix(1,0,0,-1,150.5,54.4)"
               id="text3119"><tspan
                 style="fill:#000000;fill-opacity:1;fill-rule:nonzero;stroke:none;font-family:Times;font-variant:normal;font-weight:normal;font-size:14;writing-mode:lr;-inkscape-font-specification:Times-Roman"
                 x="0"
                 y="0"
                 id="tspan3121">3</tspan></text>
</g><path
             d="M 634.801,3050.3 C 599.898,2836.6 561.699,2471.1 640,2170 788.102,1600.1 1201.4,1024.3 1416.3,752"
             style="fill:none;stroke:#000000;stroke-opacity:1;stroke-width:10;stroke-linecap:butt;stroke-linejoin:miter;stroke-miterlimit:1;stroke-dasharray:none"
             id="path3123" /><g
             id="g3125"
             transform="scale(10,10)"><text
               transform="matrix(1,0,0,-1,76,186.4)"
               id="text3127"><tspan
                 style="fill:#000000;fill-opacity:1;fill-rule:nonzero;stroke:none;font-family:Times;font-variant:normal;font-weight:normal;font-size:14;writing-mode:lr;-inkscape-font-specification:Times-Roman"
                 x="0"
                 y="0"
                 id="tspan3129">5</tspan></text>
</g><path
             d="m 1270,2350 c 0,99.41 -120.89,180 -270,180 -149.113,0 -270,-80.59 -270,-180 0,-99.41 120.887,-180 270,-180 149.11,0 270,80.59 270,180"
             style="fill:none;stroke:#000000;stroke-opacity:1;stroke-width:10;stroke-linecap:butt;stroke-linejoin:miter;stroke-miterlimit:1;stroke-dasharray:none"
             id="path3131" /><g
             id="g3133"
             transform="scale(10,10)"><text
               transform="matrix(1,0,0,-1,96,230.4)"
               id="text3135"><tspan
                 style="fill:#000000;fill-opacity:1;fill-rule:nonzero;stroke:none;font-family:Times;font-variant:normal;font-weight:normal;font-size:14;writing-mode:lr;-inkscape-font-specification:Times-Roman"
                 x="0"
                 y="0"
                 id="tspan3137">6</tspan></text>
</g><path
             d="M 1581.2,769.199 C 1665,1250.1 1894.1,2565.1 1978.4,3048.5"
             style="fill:none;stroke:#000000;stroke-opacity:1;stroke-width:10;stroke-linecap:butt;stroke-linejoin:miter;stroke-miterlimit:1;stroke-dasharray:none"
             id="path3147" /><g
             id="g3149"
             transform="scale(10,10)"><text
               transform="matrix(1,0,0,-1,179,186.4)"
               id="text3151"><tspan
                 style="fill:#000000;fill-opacity:1;fill-rule:nonzero;stroke:none;font-family:Times;font-variant:normal;font-weight:normal;font-size:14;writing-mode:lr;-inkscape-font-specification:Times-Roman"
                 x="0"
                 y="0"
                 id="tspan3153">1</tspan></text>
</g><path
             d="m 3130,4990 c 0,99.41 -120.89,180 -270,180 -149.11,0 -270,-80.59 -270,-180 0,-99.41 120.89,-180 270,-180 149.11,0 270,80.59 270,180"
             style="fill:none;stroke:#000000;stroke-opacity:1;stroke-width:10;stroke-linecap:butt;stroke-linejoin:miter;stroke-miterlimit:1;stroke-dasharray:none"
             id="path3155" /><g
             id="g3157"
             transform="scale(10,10)"><text
               transform="matrix(1,0,0,-1,281.5,494.4)"
               id="text3159"><tspan
                 style="fill:#000000;fill-opacity:1;fill-rule:nonzero;stroke:none;font-family:Times;font-variant:normal;font-weight:normal;font-size:14;writing-mode:lr;-inkscape-font-specification:Times-Roman"
                 x="0"
                 y="0"
                 id="tspan3161">4</tspan></text>
</g><path
             d="M 2655.5,4871.8 C 2552.3,4807.2 2428.5,4721.7 2330,4630 2215.6,4523.4 2107,4383.3 2030.4,4275.4"
             style="fill:none;stroke:#000000;stroke-opacity:1;stroke-width:10;stroke-linecap:butt;stroke-linejoin:miter;stroke-miterlimit:1;stroke-dasharray:none"
             id="path3163" /><g
             id="g3165"
             transform="scale(10,10)"><text
               transform="matrix(1,0,0,-1,233,450.4)"
               id="text3167"><tspan
                 style="fill:#000000;fill-opacity:1;fill-rule:nonzero;stroke:none;font-family:Times;font-variant:normal;font-weight:normal;font-size:14;writing-mode:lr;-inkscape-font-specification:Times-Roman"
                 x="0"
                 y="0"
                 id="tspan3169">1</tspan></text>
</g><path
             d="m 2550,1470 c 0,99.41 -120.89,180 -270,180 -149.11,0 -270,-80.59 -270,-180 0,-99.41 120.89,-180 270,-180 149.11,0 270,80.59 270,180"
             style="fill:none;stroke:#000000;stroke-opacity:1;stroke-width:10;stroke-linecap:butt;stroke-linejoin:miter;stroke-miterlimit:1;stroke-dasharray:none"
             id="path3195" /><g
             id="g3197"
             transform="scale(10,10)"><text
               transform="matrix(1,0,0,-1,224,142.4)"
               id="text3199"><tspan
                 style="fill:#000000;fill-opacity:1;fill-rule:nonzero;stroke:none;font-family:Times;font-variant:normal;font-weight:normal;font-size:14;writing-mode:lr;-inkscape-font-specification:Times-Roman"
                 x="0"
                 y="0"
                 id="tspan3201">5</tspan></text>
</g><g
             id="g3205"
             transform="scale(10,10)" /><path
             d="M 2146.1,1308.6 C 2014.4,1149.8 1814.5,908.801 1683,750.398"
             style="fill:none;stroke:#000000;stroke-opacity:1;stroke-width:10;stroke-linecap:butt;stroke-linejoin:miter;stroke-miterlimit:1;stroke-dasharray:none"
             id="path3219" /><g
             id="g3221"
             transform="scale(10,10)"><text
               transform="matrix(1,0,0,-1,198,98.4)"
               id="text3223"><tspan
                 style="fill:#000000;fill-opacity:1;fill-rule:nonzero;stroke:none;font-family:Times;font-variant:normal;font-weight:normal;font-size:14;writing-mode:lr;-inkscape-font-specification:Times-Roman"
                 x="0"
                 y="0"
                 id="tspan3225">2</tspan></text>
</g><path
             d="M 1046.9,2171.7 C 1118.5,1904.1 1262.4,1384 1410,950 c 20.7,-60.898 45.6,-126.801 68.6,-185.301"
             style="fill:none;stroke:#000000;stroke-opacity:1;stroke-width:10;stroke-linecap:butt;stroke-linejoin:miter;stroke-miterlimit:1;stroke-dasharray:none"
             id="path3235" /><g
             id="g3237"
             transform="scale(10,10)"><text
               transform="matrix(1,0,0,-1,129,142.4)"
               id="text3239"><tspan
                 style="fill:#000000;fill-opacity:1;fill-rule:nonzero;stroke:none;font-family:Times;font-variant:normal;font-weight:normal;font-size:14;writing-mode:lr;-inkscape-font-specification:Times-Roman"
                 x="0"
                 y="0"
                 id="tspan3241">2</tspan></text>
</g></g></g></g></g></svg>